#!OML:ASF H:\Terrain\Walking\May29\JustinRory\Justin.ASF
:FULLY-SPECIFIED
:DEGREES
1009
root 7.37561 17.5021 -15.6228 -1.15123 -3.50088 -0.767902
lowerback 5.01334 -0.176524 -1.35369
upperback 0.794017 -0.262983 2.10608
thorax -1.97799 -0.117001 2.94639
lowerneck -14.5972 -1.57618 -9.52414
upperneck 14.8187 -0.486478 2.53578
head 6.98096 -0.548647 2.32766
rclavicle -6.83322e-015 -8.34896e-015
rhumerus -11.184 42.4983 -33.6364
rradius 129.581
rwrist -23.3479
rhand -4.29003 39.7985
rfingers 7.12502
rthumb 21.4754 10.9689
lclavicle -6.83322e-015 -8.34896e-015
lhumerus -21.2277 -35.505 48.1068
lradius 127.408
lwrist 9.29985
lhand -3.61645 21.6294
lfingers 7.12502
lthumb 22.1222 50.3838
rfemur -3.16519 -3.0153 19.6486
rtibia 21.9274
rfoot -14.7882 -11.5877
rtoes 0.327852
lfemur -2.26207 1.7971 -14.9204
ltibia 22.2725
lfoot -16.4332 4.53225
ltoes -10.6111
1010
root 7.36996 17.5027 -15.6212 -1.20778 -3.52686 -1.0944
lowerback 5.14093 -0.182645 -1.01903
upperback 0.750297 -0.251345 2.16149
thorax -2.09634 -0.111694 2.81534
lowerneck -14.5088 -1.55726 -9.5041
upperneck 14.9371 -0.487769 2.61366
head 7.00387 -0.544615 2.35098
rclavicle -2.38542e-015 -1.23246e-014
rhumerus -10.1823 42.0682 -31.7116
rradius 129.399
rwrist -23.447
rhand -4.2754 38.6036
rfingers 7.12502
rthumb 21.4895 9.77566
lclavicle -2.38542e-015 -1.23246e-014
lhumerus -20.2894 -35.4932 46.1521
lradius 127.26
lwrist 9.18453
lhand -3.47314 22.2714
lfingers 7.12502
lthumb 22.2598 51.0094
rfemur -3.06096 -2.96407 20.0413
rtibia 21.8536
rfoot -14.7396 -11.721
rtoes 0.235902
lfemur -2.2075 1.71683 -14.5362
ltibia 22.3418
lfoot -16.5701 4.48857
ltoes -9.86623
1011
root 7.3626 17.5013 -15.6226 -1.28652 -3.51922 -0.972729
lowerback 5.25992 -0.201937 -1.16658
upperback 0.746582 -0.286602 2.10694
thorax -2.16427 -0.127556 2.84564
lowerneck -14.5855 -1.59089 -9.33829
upperneck 15.1529 -0.510277 2.32936
head 7.08875 -0.576957 2.2302
rclavicle -4.96962e-016 -2.0276e-014
rhumerus -9.24998 41.428 -30.0787
rradius 129.221
rwrist -23.4257
rhand -4.10008 37.4521
rfingers 7.12502
rthumb 21.6579 8.64347
lclavicle -4.96962e-016 -2.0276e-014
lhumerus -19.6759 -34.9448 44.4075
lradius 127.207
lwrist 9.22807
lhand -3.00967 22.6061
lfingers 7.12502
lthumb 22.7047 51.2903
rfemur -2.93221 -2.91074 19.9398
rtibia 21.7213
rfoot -14.5169 -11.8583
rtoes 0.166105
lfemur -2.21932 1.62913 -14.6505
ltibia 22.546
lfoot -16.6272 4.49941
ltoes -9.51707
1012
root 7.35009 17.5021 -15.6336 -1.12891 -3.71693 -1.16569
lowerback 5.22531 -0.151607 -1.12424
upperback 0.672775 -0.214147 2.19411
thorax -2.22496 -0.0900842 2.90706
lowerneck -14.4608 -1.58378 -9.24865
upperneck 15.2577 -0.495782 2.12153
head 7.10071 -0.586929 2.14973
rclavicle 1.08089e-014 2.98177e-014
rhumerus -9.18195 40.4929 -29.1882
rradius 129.163
rwrist -23.1951
rhand -4.51473 39.0553
rfingers 7.12502
rthumb 21.2596 10.2013
lclavicle 1.08089e-014 2.98177e-014
lhumerus -19.3148 -34.2847 43.0335
lradius 127.027
lwrist 9.07914
lhand -2.95214 22.4799
lfingers 7.12502
lthumb 22.7599 51.1574
rfemur -3.09342 -2.47107 20.2751
rtibia 21.6079
rfoot -14.3432 -12.1059
rtoes 0.491786
lfemur -2.506 1.65406 -14.382
ltibia 22.7788
lfoot -16.6641 4.66709
ltoes -9.47607
1013
root 7.33565 17.5034 -15.6456 -0.869683 -3.78641 -1.65575
lowerback 5.06018 -0.162394 -0.846792
upperback 0.590212 -0.207476 2.38974
thorax -2.21827 -0.0877759 2.95171
lowerneck -14.1171 -1.48442 -9.16264
upperneck 15.0996 -0.405944 2.05841
head 6.98395 -0.541384 2.1232
rclavicle -2.90723e-015 -2.34566e-014
rhumerus -9.21782 39.529 -28.7703
rradius 128.992
rwrist -23.1207
rhand -4.24138 39.0182
rfingers 7.12502
rthumb 21.5222 10.1939
lclavicle -2.90723e-015 -2.34566e-014
lhumerus -19.113 -33.6019 42.0132
lradius 126.872
lwrist 8.77249
lhand -3.10624 22.5254
lfingers 7.12502
lthumb 22.612 51.221
rfemur -3.35782 -2.09297 20.9539
rtibia 21.5417
rfoot -14.3351 -12.393
rtoes 0.917559
lfemur -2.90089 1.71384 -13.7764
ltibia 22.9576
lfoot -16.6449 4.77993
ltoes -10.0949
1014
root 7.32656 17.5059 -15.6463 -0.836267 -3.5206 -1.77455
lowerback 4.98684 -0.248525 -0.86796
upperback 0.603326 -0.321536 2.49647
thorax -2.15645 -0.144942 3.08121
lowerneck -13.6057 -1.35652 -9.33763
upperneck 14.6279 -0.292082 2.28342
head 6.73606 -0.465751 2.23246
rclavicle -1.12313e-014 -3.97569e-015
rhumerus -9.2493 38.5419 -28.5576
rradius 128.756
rwrist -23.1774
rhand -4.48355 38.457
rfingers 7.12502
rthumb 21.2896 9.60631
lclavicle -1.12313e-014 -3.97569e-015
lhumerus -18.8288 -32.7367 41.2953
lradius 126.818
lwrist 8.63506
lhand -3.12929 22.7571
lfingers 7.12502
lthumb 22.5899 51.4554
rfemur -3.34816 -2.29471 21.1206
rtibia 21.5366
rfoot -14.4026 -12.4666
rtoes 0.957391
lfemur -3.04779 1.64267 -13.6061
ltibia 23.0267
lfoot -16.5599 4.63717
ltoes -10.568
1015
root 7.32159 17.5084 -15.6421 -0.985514 -3.21899 -1.6183
lowerback 5.12886 -0.337299 -1.09107
upperback 0.611963 -0.452017 2.49339
thorax -2.21752 -0.207604 3.21442
lowerneck -13.2681 -1.27247 -9.33788
upperneck 14.3661 -0.209419 2.24465
head 6.58867 -0.423384 2.2254
rclavicle 4.52235e-015 -3.18055e-015
rhumerus -9.58582 37.5824 -28.7782
rradius 128.661
rwrist -23.2937
rhand -4.92603 39.2078
rfingers 7.12502
rthumb 20.8645 10.3097
lclavicle 4.52235e-015 -3.18055e-015
lhumerus -18.5871 -31.82 40.9117
lradius 126.701
lwrist 8.58481
lhand -3.14636 23.0754
lfingers 7.12502
lthumb 22.5735 51.7757
rfemur -3.16675 -2.71646 20.914
rtibia 21.5882
rfoot -14.5019 -12.324
rtoes 0.611811
lfemur -2.90808 1.5012 -13.7492
ltibia 22.9463
lfoot -16.5023 4.38503
ltoes -10.1451
1016
root 7.31999 17.5053 -15.6333 -1.24357 -2.89726 -1.12522
lowerback 5.33285 -0.441963 -1.57651
upperback 0.648537 -0.624459 2.31178
thorax -2.27976 -0.289674 3.31486
lowerneck -13.1605 -1.22832 -8.82243
upperneck 14.3121 -0.186418 1.7691
head 6.55084 -0.423385 1.98949
rclavicle 1.13059e-014 -3.57812e-015
rhumerus -9.946 36.5684 -29.4623
rradius 128.537
rwrist -23.5537
rhand -5.35901 39.1682
rfingers 7.12502
rthumb 20.4484 10.225
lclavicle 1.13059e-014 -3.57812e-015
lhumerus -18.5272 -30.9496 40.734
lradius 126.63
lwrist 8.61133
lhand -3.40052 23.509
lfingers 7.12502
lthumb 22.3295 52.2387
rfemur -2.88119 -3.2794 20.2762
rtibia 21.6849
rfoot -14.6399 -12.0609
rtoes 0.0798086
lfemur -2.52925 1.47465 -14.2782
ltibia 22.7287
lfoot -16.5965 4.09953
ltoes -9.62265
